<svg id="Slide_3" data-name="Slide 3" xmlns="http://www.w3.org/2000/svg" viewBox="0 0 236.97 195.9"><defs><style>.cls-1{font-size:14px;fill:#fff;font-family:Futura PT;}.cls-2{fill:#ff0;}.cls-3{fill:#d4145a;}.cls-4{fill:#f7931e;}.cls-5{fill:#600047;}.cls-6{fill:#fa37d9;}.cls-7{fill:#f15924;}.cls-8{fill:maroon;}.cls-9{fill:#914c0f;}.cls-10{fill:#f989a4;}</style></defs><title>chart_legend</title><text class="cls-1" transform="translate(31.25 190.43)">no action</text><circle class="cls-2" cx="9" cy="186.9" r="9"/><circle class="cls-3" cx="9" cy="75.71" r="9"/><circle class="cls-4" cx="9" cy="164.66" r="9"/><circle class="cls-5" cx="9" cy="31.24" r="9"/><circle class="cls-6" cx="9" cy="120.19" r="9"/><circle class="cls-7" cx="9" cy="97.95" r="9"/><circle class="cls-8" cx="9" cy="9" r="9"/><circle class="cls-9" cx="9" cy="53.47" r="9"/><circle class="cls-10" cx="9" cy="142.42" r="9"/><text class="cls-1" transform="translate(30.35 168.77)">r<tspan x="4.21" y="0">esigned/</tspan><tspan x="57.06" y="0">r</tspan><tspan x="61.28" y="0">eti</tspan><tspan x="74.52" y="0">r</tspan><tspan x="78.73" y="0">ed</tspan></text><text class="cls-1" transform="translate(30.35 147.02)">demoted/<tspan x="58.55" y="0">r</tspan><tspan x="62.76" y="0">eprimanded</tspan></text><text class="cls-1" transform="translate(31.25 102.4)">fi<tspan x="6.58" y="0">r</tspan><tspan x="10.79" y="0">ed</tspan></text><text class="cls-1" transform="translate(30.35 124.04)">suspended</text><text class="cls-1" transform="translate(30.35 13.46)">commi<tspan x="36.06" y="0">t</tspan><tspan x="39.73" y="0">ted suicide/died</tspan></text><text class="cls-1" transform="translate(30.35 80.71)">la<tspan x="10.53" y="0">w</tspan><tspan x="19.98" y="0">suit se</tspan><tspan x="53.34" y="0">t</tspan><tspan x="57.01" y="0">tled/moneta</tspan><tspan x="128.84" y="0">r</tspan><tspan x="133.92" y="0">y punishment</tspan></text><text class="cls-1" transform="translate(30.35 58.47)">banned f<tspan x="49.63" y="0">r</tspan><tspan x="54" y="0">om p</tspan><tspan x="81.93" y="0">r</tspan><tspan x="86.14" y="0">emises</tspan></text><text class="cls-1" transform="translate(30.35 35.24)">ar<tspan x="12.07" y="0">r</tspan><tspan x="16.28" y="0">ested/imprisoned/co</tspan><tspan x="139.61" y="0">n</tspan><tspan x="146.24" y="0">victed</tspan></text></svg>