<svg id="Layer_10" data-name="Layer 10" xmlns="http://www.w3.org/2000/svg" viewBox="0 0 168.8 45.25"><defs><style>.cls-1{fill:red;}</style></defs><title>dna</title><path class="cls-1" d="M326.52,6939.64a222.5,222.5,0,0,0,14.58,21.57c3.67,4.78,7.64,9.38,13.91,10.34,14.55,2.24,23.67-11.41,31.79-21,5.57-6.54,13.33-13.43,22.61-11.88,7.91,1.32,13.38,8.27,17.79,14.39,6.61,9.17,15.56,22.51,28.76,20.3,7.91-1.32,12.84-8.52,17.61-14.26l20.33-24.52c1.22-1.48-.89-3.61-2.12-2.12l-16,19.32c-4.71,5.68-9.46,13.41-16,17.11-15,8.47-26.12-13-33.68-22.23-6.9-8.4-16.5-14.09-27.37-9.47-13.32,5.66-18.26,20.68-30.11,28.13-3.86,2.43-8.9,4.11-13.5,3.21-4.38-.86-7.44-3.9-10.15-7.24a195.37,195.37,0,0,1-15.85-23.2,1.5,1.5,0,0,0-2.59,1.51h0Z" transform="translate(-325.48 -6931.99)"/><path class="cls-1" d="M328.22,6976.46c6.22-13.72,13.89-30.87,29.38-36.07,17.7-5.94,27.86,15,38.73,24.6,8.82,7.81,21.43,12.43,31.06,3.29,8.13-7.71,9.84-20.12,18.25-27.54,7.69-6.79,18.55-4,25.36,2.64,7.18,7,9.73,17.43,12.16,26.81a1.5,1.5,0,0,0,2.89-.8c-3.73-14.4-9.45-32.26-26.34-35.34-13.65-2.49-20.67,8.94-26.08,19.37-2.94,5.67-6,12.13-11.89,15.33-9.84,5.39-20.27-2.42-26.89-9.35-9.57-10-19.43-26.12-35.73-22.56-17.71,3.87-26.79,23.27-33.52,38.11-0.79,1.75,1.79,3.27,2.59,1.51h0Z" transform="translate(-325.48 -6931.99)"/><path class="cls-1" d="M349,6945.59a127.24,127.24,0,0,0-.41,19.72c0.11,1.92,3.11,1.93,3,0a127.24,127.24,0,0,1,.41-19.72c0.19-1.92-2.81-1.91-3,0h0Z" transform="translate(-325.48 -6931.99)"/><path class="cls-1" d="M362.43,6937.57v28.9a1.5,1.5,0,0,0,3,0v-28.9a1.5,1.5,0,0,0-3,0h0Z" transform="translate(-325.48 -6931.99)"/><path class="cls-1" d="M370.53,6942.19v19.65a1.5,1.5,0,0,0,3,0v-19.65a1.5,1.5,0,0,0-3,0h0Z" transform="translate(-325.48 -6931.99)"/><path class="cls-1" d="M398.68,6939.92L396.27,6963c-0.2,1.92,2.8,1.9,3,0l2.41-23.11c0.2-1.92-2.8-1.9-3,0h0Z" transform="translate(-325.48 -6931.99)"/><path class="cls-1" d="M407.43,6938.73l1.51,33.51c0.09,1.92,3.09,1.93,3,0l-1.51-33.51c-0.09-1.92-3.09-1.93-3,0h0Z" transform="translate(-325.48 -6931.99)"/><path class="cls-1" d="M418.87,6944.49l-1.34,26.64c-0.1,1.93,2.9,1.92,3,0l1.34-26.64c0.1-1.93-2.9-1.92-3,0h0Z" transform="translate(-325.48 -6931.99)"/><path class="cls-1" d="M441.15,6942.2a158.74,158.74,0,0,0,.41,23.18c0.17,1.91,3.17,1.93,3,0a158.74,158.74,0,0,1-.41-23.18c0.11-1.93-2.89-1.92-3,0h0Z" transform="translate(-325.48 -6931.99)"/><path class="cls-1" d="M452.55,6937.57a224.62,224.62,0,0,0,2.56,34.8c0.25,1.68,3,1.27,2.95-.4l-0.14-4.34c-0.06-1.93-3.06-1.93-3,0l0.14,4.34,2.95-.4a219.51,219.51,0,0,1-2.46-34,1.5,1.5,0,0,0-3,0h0Z" transform="translate(-325.48 -6931.99)"/><path class="cls-1" d="M464.18,6939.88v24.28a1.5,1.5,0,0,0,3,0v-24.28a1.5,1.5,0,0,0-3,0h0Z" transform="translate(-325.48 -6931.99)"/></svg>