<svg id="8798f52c-2a09-4035-b241-876b2bc39b01" data-name="Text" xmlns="http://www.w3.org/2000/svg" xmlns:xlink="http://www.w3.org/1999/xlink" viewBox="0 0 1045.45 97.89"><defs><style>.\32 56cf3db-1a7c-4545-9add-961904b2028f{font-size:18px;fill:#fff;font-family:Letter Gothic;}.\34 62d4cca-0c16-4c0b-b988-59829dcf3ab1,.ff70ef7e-df88-47a7-af18-68efd8556077{fill:none;}.\37 99a2f18-3932-4284-84d0-cd61fd188e83,.ff70ef7e-df88-47a7-af18-68efd8556077{stroke:#fff;}.\34 62d4cca-0c16-4c0b-b988-59829dcf3ab1,.\37 99a2f18-3932-4284-84d0-cd61fd188e83,.ff70ef7e-df88-47a7-af18-68efd8556077{stroke-miterlimit:10;}.\37 99a2f18-3932-4284-84d0-cd61fd188e83{fill:url(#e281aff2-ac44-49ca-ab99-40972a453046);}.\34 62d4cca-0c16-4c0b-b988-59829dcf3ab1{stroke:red;}</style><linearGradient id="e281aff2-ac44-49ca-ab99-40972a453046" x1="24.17" y1="25.5" x2="1024.17" y2="25.5" gradientUnits="userSpaceOnUse"><stop offset="0" stop-color="#fbb03b"/><stop offset="0.11" stop-color="#faa738"/><stop offset="0.29" stop-color="#f78d32"/><stop offset="0.52" stop-color="#f26427"/><stop offset="0.57" stop-color="#f15a24"/><stop offset="1" stop-color="#f15a24"/></linearGradient></defs><title>ms1-project</title><text class="256cf3db-1a7c-4545-9add-961904b2028f" transform="translate(0 94.08)">1970</text><text class="256cf3db-1a7c-4545-9add-961904b2028f" transform="translate(1002.24 94.08)">2018</text><text class="256cf3db-1a7c-4545-9add-961904b2028f" transform="translate(198.05 94.08)">1980</text><text class="256cf3db-1a7c-4545-9add-961904b2028f" transform="translate(399.24 94.08)">1990</text><text class="256cf3db-1a7c-4545-9add-961904b2028f" transform="translate(602.71 94.08)">2000</text><text class="256cf3db-1a7c-4545-9add-961904b2028f" transform="translate(803.33 94.08)">2010</text><line class="ff70ef7e-df88-47a7-af18-68efd8556077" x1="424.17" y1="60.5" x2="424.17" y2="50.5"/><line class="ff70ef7e-df88-47a7-af18-68efd8556077" x1="524.17" y1="60.5" x2="524.17" y2="50.5"/><line class="ff70ef7e-df88-47a7-af18-68efd8556077" x1="624.17" y1="60.64" x2="624.17" y2="50.64"/><line class="ff70ef7e-df88-47a7-af18-68efd8556077" x1="724.17" y1="60.64" x2="724.17" y2="50.64"/><line class="ff70ef7e-df88-47a7-af18-68efd8556077" x1="824.17" y1="60.57" x2="824.17" y2="50.57"/><line class="ff70ef7e-df88-47a7-af18-68efd8556077" x1="924.17" y1="60.57" x2="924.17" y2="50.57"/><line class="ff70ef7e-df88-47a7-af18-68efd8556077" x1="1024.17" y1="60.79" x2="1024.17" y2="50.79"/><rect class="799a2f18-3932-4284-84d0-cd61fd188e83" x="24.17" y="0.5" width="1000" height="50"/><line class="ff70ef7e-df88-47a7-af18-68efd8556077" x1="24.17" y1="60.5" x2="24.17" y2="50.5"/><line class="ff70ef7e-df88-47a7-af18-68efd8556077" x1="124.17" y1="60.5" x2="124.17" y2="50.5"/><line class="ff70ef7e-df88-47a7-af18-68efd8556077" x1="224.17" y1="60.43" x2="224.17" y2="50.43"/><line class="ff70ef7e-df88-47a7-af18-68efd8556077" x1="324.17" y1="60.43" x2="324.17" y2="50.43"/><line class="ff70ef7e-df88-47a7-af18-68efd8556077" x1="105.56" y1="0.5" x2="105.56" y2="50.79"/><line class="462d4cca-0c16-4c0b-b988-59829dcf3ab1" x1="374.75" y1="0.36" x2="374.75" y2="50.64"/><line class="462d4cca-0c16-4c0b-b988-59829dcf3ab1" x1="324.17" y1="0.5" x2="324.17" y2="50.79"/><line class="462d4cca-0c16-4c0b-b988-59829dcf3ab1" x1="143.53" y1="0.5" x2="143.53" y2="50.79"/><line class="462d4cca-0c16-4c0b-b988-59829dcf3ab1" x1="391.94" y1="0.36" x2="391.94" y2="50.64"/><line class="462d4cca-0c16-4c0b-b988-59829dcf3ab1" x1="951.94" y1="0.5" x2="951.94" y2="50.79"/><line class="462d4cca-0c16-4c0b-b988-59829dcf3ab1" x1="452.38" y1="0.5" x2="452.38" y2="50.79"/><line class="462d4cca-0c16-4c0b-b988-59829dcf3ab1" x1="942.66" y1="0.36" x2="942.66" y2="50.64"/><line class="462d4cca-0c16-4c0b-b988-59829dcf3ab1" x1="970.66" y1="0.5" x2="970.66" y2="50.79"/><line class="462d4cca-0c16-4c0b-b988-59829dcf3ab1" x1="961.23" y1="0.36" x2="961.23" y2="50.64"/><line class="462d4cca-0c16-4c0b-b988-59829dcf3ab1" x1="639.03" y1="0.36" x2="639.03" y2="50.64"/><line class="462d4cca-0c16-4c0b-b988-59829dcf3ab1" x1="661.66" y1="0.36" x2="661.66" y2="50.64"/></svg>