<svg id="b2898cc0-38ae-4073-b4f4-0c4cb08c4bb3" data-name="2005 v2" xmlns="http://www.w3.org/2000/svg" xmlns:xlink="http://www.w3.org/1999/xlink" viewBox="0 0 816.86 236.08"><defs><style>.b1bb108e-42e0-4a89-8f53-67f9509e1de2,.c4ca7705-0cb9-4598-9e19-6331f0258824{fill:none;}.\33 0d36120-72c7-4b89-a615-7122d803a4af{clip-path:url(#c79b2dc7-f2e2-43c1-84e2-b2cea89adea8);}.b1bb108e-42e0-4a89-8f53-67f9509e1de2{stroke:#d9d9d9;stroke-linejoin:round;stroke-width:0.5px;}.\33 718fcea-0eb2-4d3a-bbad-69ab46da16b2{clip-path:url(#4a41236e-cde7-4cec-be88-2fde170fd48f);}.cb586d6f-8002-40f6-9684-d527ab2d8c46{fill:#ff0;}.\38 c127168-d309-42d4-9ad6-1e04fdb29b93{fill:#ed7d31;}.e9446539-c302-47cf-b4ee-dafbc1bcf2cc{fill:#d4145a;}.\38 37ba07e-6075-45b7-a651-24c9cb34d9d0{fill:#4d4d4d;}.b4536b81-f866-4392-80d4-35f69fda9fbf{font-size:14px;}.\30 7f22d8b-d251-48f3-a7c2-807b31f03da1,.\36 78268e6-1c66-4e9f-b338-749ca1725193,.b4536b81-f866-4392-80d4-35f69fda9fbf,.db8e93f3-21bf-4bae-8510-69b8d3a1af97{fill:#fff;}.b4536b81-f866-4392-80d4-35f69fda9fbf,.db8e93f3-21bf-4bae-8510-69b8d3a1af97{font-family:Futura;}.\35 fab5246-b91f-4ff3-b9a4-df8f52bd7933{clip-path:url(#09b072d4-1da1-4c53-8918-f8c9550652a9);}.e7b6030e-29b2-4bdb-81a0-1bce0e706283{clip-path:url(#0dc9f535-da17-4480-9aee-d72af9465006);}.c9922519-431b-41ed-8531-f29cc6e2528f{clip-path:url(#4344a3bf-351b-449f-8617-e9ad3b4956b3);}.\39 b11f413-a10b-47c0-b573-078a86ac9f86{clip-path:url(#272e4fc8-eba7-4ff6-8141-29a8a8629cc2);}.\30 75296aa-e9f4-43d8-9678-7780c72091ea{clip-path:url(#27b652b3-0815-4782-abf8-1b7dee5b21c7);}.\39 a7ecf32-c220-409d-9961-46bcd7d7e0d2{clip-path:url(#e5c7382c-0984-415b-9fc7-50ee56ad2ea0);}.db8e93f3-21bf-4bae-8510-69b8d3a1af97{font-size:9px;}.\38 c894d58-0312-433e-bd5a-e4ca3b122578{clip-path:url(#570aa430-a859-4022-a6fa-a5c04b301536);}.\30 1f7bc8a-f917-4497-8ab9-5a6636c453c8{clip-path:url(#8e353766-06ec-4033-a759-3ef246b9c6ae);}.e2d660b8-2b00-4533-b90d-8a97bcb2d8bc{clip-path:url(#c2cbd1d5-ee9c-49aa-9f17-40846085344b);}.\38 1827800-0747-4d71-95eb-02d4158b7ade{clip-path:url(#a7d8febe-60fe-4892-a713-e09046288195);}.dee84bc8-4b08-468b-bd0b-5b55b2103f51{clip-path:url(#897cba7d-04af-46e7-b4dc-f86b736540ef);}.\36 78268e6-1c66-4e9f-b338-749ca1725193{font-size:18px;}.\30 7f22d8b-d251-48f3-a7c2-807b31f03da1,.\36 78268e6-1c66-4e9f-b338-749ca1725193{font-family:Futura PT;}.\30 7f22d8b-d251-48f3-a7c2-807b31f03da1{font-size:10px;}</style><clipPath id="c79b2dc7-f2e2-43c1-84e2-b2cea89adea8" transform="translate(-261.04 -2948.48)"><rect class="c4ca7705-0cb9-4598-9e19-6331f0258824" x="513.47" y="2974.96" width="144" height="215"/></clipPath><clipPath id="4a41236e-cde7-4cec-be88-2fde170fd48f" transform="translate(-261.04 -2948.48)"><rect class="c4ca7705-0cb9-4598-9e19-6331f0258824" x="534.47" y="3013.96" width="103" height="152"/></clipPath><clipPath id="09b072d4-1da1-4c53-8918-f8c9550652a9" transform="translate(-261.04 -2948.48)"><rect class="c4ca7705-0cb9-4598-9e19-6331f0258824" x="682.93" y="2975.46" width="144" height="215"/></clipPath><clipPath id="0dc9f535-da17-4480-9aee-d72af9465006" transform="translate(-261.04 -2948.48)"><rect class="c4ca7705-0cb9-4598-9e19-6331f0258824" x="703.93" y="3014.46" width="103" height="152"/></clipPath><clipPath id="4344a3bf-351b-449f-8617-e9ad3b4956b3" transform="translate(-261.04 -2948.48)"><rect class="c4ca7705-0cb9-4598-9e19-6331f0258824" x="850.9" y="2975.46" width="145" height="215"/></clipPath><clipPath id="272e4fc8-eba7-4ff6-8141-29a8a8629cc2" transform="translate(-261.04 -2948.48)"><rect class="c4ca7705-0cb9-4598-9e19-6331f0258824" x="872.9" y="3014.46" width="103" height="152"/></clipPath><clipPath id="27b652b3-0815-4782-abf8-1b7dee5b21c7" transform="translate(-261.04 -2948.48)"><rect class="c4ca7705-0cb9-4598-9e19-6331f0258824" x="345.65" y="2974.96" width="145" height="216"/></clipPath><clipPath id="e5c7382c-0984-415b-9fc7-50ee56ad2ea0" transform="translate(-261.04 -2948.48)"><rect class="c4ca7705-0cb9-4598-9e19-6331f0258824" x="366.65" y="3012.96" width="104" height="154"/></clipPath><clipPath id="570aa430-a859-4022-a6fa-a5c04b301536" transform="translate(-261.04 -2948.48)"><rect class="c4ca7705-0cb9-4598-9e19-6331f0258824" x="287" y="2974.96" width="145" height="216"/></clipPath><clipPath id="8e353766-06ec-4033-a759-3ef246b9c6ae" transform="translate(-261.04 -2948.48)"><rect class="c4ca7705-0cb9-4598-9e19-6331f0258824" x="268.09" y="2974.96" width="145" height="216"/></clipPath><clipPath id="c2cbd1d5-ee9c-49aa-9f17-40846085344b" transform="translate(-261.04 -2948.48)"><rect class="c4ca7705-0cb9-4598-9e19-6331f0258824" x="273.09" y="2974.96" width="145" height="216"/></clipPath><clipPath id="a7d8febe-60fe-4892-a713-e09046288195" transform="translate(-261.04 -2948.48)"><rect class="c4ca7705-0cb9-4598-9e19-6331f0258824" x="253.65" y="2974.96" width="145" height="216"/></clipPath><clipPath id="897cba7d-04af-46e7-b4dc-f86b736540ef" transform="translate(-261.04 -2948.48)"><rect class="c4ca7705-0cb9-4598-9e19-6331f0258824" x="300.65" y="2974.96" width="145" height="216"/></clipPath></defs><title>pt2_graph1</title><g class="30d36120-72c7-4b89-a615-7122d803a4af"><path class="b1bb108e-42e0-4a89-8f53-67f9509e1de2" d="M586,3014.46v152" transform="translate(-261.04 -2948.48)"/></g><g class="3718fcea-0eb2-4d3a-bbad-69ab46da16b2"><rect class="cb586d6f-8002-40f6-9684-d527ab2d8c46" x="273.43" y="199.48" width="78" height="11"/></g><g class="3718fcea-0eb2-4d3a-bbad-69ab46da16b2"><rect class="cb586d6f-8002-40f6-9684-d527ab2d8c46" x="273.43" y="174.48" width="82" height="10"/></g><g class="3718fcea-0eb2-4d3a-bbad-69ab46da16b2"><rect class="8c127168-d309-42d4-9ad6-1e04fdb29b93" x="273.43" y="149.48" width="51" height="10"/></g><g class="3718fcea-0eb2-4d3a-bbad-69ab46da16b2"><rect class="8c127168-d309-42d4-9ad6-1e04fdb29b93" x="273.43" y="124.48" width="55" height="10"/></g><g class="3718fcea-0eb2-4d3a-bbad-69ab46da16b2"><rect class="e9446539-c302-47cf-b4ee-dafbc1bcf2cc" x="273.43" y="98.48" width="29" height="10"/></g><g class="3718fcea-0eb2-4d3a-bbad-69ab46da16b2"><rect class="e9446539-c302-47cf-b4ee-dafbc1bcf2cc" x="273.43" y="73.48" width="31" height="10"/></g><g class="3718fcea-0eb2-4d3a-bbad-69ab46da16b2"><path class="837ba07e-6075-45b7-a651-24c9cb34d9d0" d="M739.47,3032h-174v-10h174v10Zm0,25h-176v-10h176v10Zm0,26h-150v-10h150v10Zm0,25h-154v-10h154v10Zm0,25h-123v-10h123v10Zm0,26h-127v-11h127v11Z" transform="translate(-261.04 -2948.48)"/></g><g class="30d36120-72c7-4b89-a615-7122d803a4af"><text class="b4536b81-f866-4392-80d4-35f69fda9fbf" transform="translate(305.9 49.48)">200<tspan x="26.97" y="0">5</tspan></text></g><g class="5fab5246-b91f-4ff3-b9a4-df8f52bd7933"><path class="b1bb108e-42e0-4a89-8f53-67f9509e1de2" d="M755.43,3015v152" transform="translate(-261.04 -2948.48)"/></g><g class="e7b6030e-29b2-4bdb-81a0-1bce0e706283"><rect class="cb586d6f-8002-40f6-9684-d527ab2d8c46" x="443.89" y="199.98" width="82" height="11"/></g><g class="e7b6030e-29b2-4bdb-81a0-1bce0e706283"><rect class="cb586d6f-8002-40f6-9684-d527ab2d8c46" x="443.89" y="174.98" width="88" height="10"/></g><g class="e7b6030e-29b2-4bdb-81a0-1bce0e706283"><rect class="8c127168-d309-42d4-9ad6-1e04fdb29b93" x="443.89" y="149.98" width="59" height="10"/></g><g class="e7b6030e-29b2-4bdb-81a0-1bce0e706283"><rect class="8c127168-d309-42d4-9ad6-1e04fdb29b93" x="443.89" y="124.98" width="71" height="10"/></g><g class="e7b6030e-29b2-4bdb-81a0-1bce0e706283"><rect class="e9446539-c302-47cf-b4ee-dafbc1bcf2cc" x="443.89" y="98.98" width="28" height="10"/></g><g class="e7b6030e-29b2-4bdb-81a0-1bce0e706283"><rect class="e9446539-c302-47cf-b4ee-dafbc1bcf2cc" x="443.89" y="73.98" width="41" height="10"/></g><g class="e7b6030e-29b2-4bdb-81a0-1bce0e706283"><path class="837ba07e-6075-45b7-a651-24c9cb34d9d0" d="M909.93,3032.46h-164v-10h164v10Zm0,25h-177v-10h177v10Zm0,26h-134v-10h134v10Zm0,25h-146v-10h146v10Zm0,25h-117v-10h117v10Zm0,26h-123v-11h123v11Z" transform="translate(-261.04 -2948.48)"/></g><g class="5fab5246-b91f-4ff3-b9a4-df8f52bd7933"><text class="b4536b81-f866-4392-80d4-35f69fda9fbf" transform="translate(476.91 49.98)">2<tspan x="8.99" y="0">01</tspan><tspan x="24.98" y="0">0</tspan></text></g><g class="c9922519-431b-41ed-8531-f29cc6e2528f"><path class="b1bb108e-42e0-4a89-8f53-67f9509e1de2" d="M924.4,3015v152" transform="translate(-261.04 -2948.48)"/></g><g class="9b11f413-a10b-47c0-b573-078a86ac9f86"><rect class="cb586d6f-8002-40f6-9684-d527ab2d8c46" x="611.86" y="199.98" width="90" height="10"/></g><g class="9b11f413-a10b-47c0-b573-078a86ac9f86"><rect class="cb586d6f-8002-40f6-9684-d527ab2d8c46" x="611.86" y="174.98" width="100" height="10"/></g><g class="9b11f413-a10b-47c0-b573-078a86ac9f86"><rect class="8c127168-d309-42d4-9ad6-1e04fdb29b93" x="611.86" y="149.98" width="66" height="10"/></g><g class="9b11f413-a10b-47c0-b573-078a86ac9f86"><rect class="8c127168-d309-42d4-9ad6-1e04fdb29b93" x="611.86" y="123.98" width="61" height="11"/></g><g class="9b11f413-a10b-47c0-b573-078a86ac9f86"><rect class="e9446539-c302-47cf-b4ee-dafbc1bcf2cc" x="611.86" y="98.98" width="33" height="10"/></g><g class="9b11f413-a10b-47c0-b573-078a86ac9f86"><rect class="e9446539-c302-47cf-b4ee-dafbc1bcf2cc" x="611.86" y="73.98" width="45" height="10"/></g><g class="9b11f413-a10b-47c0-b573-078a86ac9f86"><path class="837ba07e-6075-45b7-a651-24c9cb34d9d0" d="M1077.9,3032.46h-160v-10h160v10Zm0,25h-172v-10h172v10Zm0,26h-144v-11h144v11Zm0,25h-139v-10h139v10Zm0,25h-105v-10h105v10Zm0,25h-115v-10h115v10Z" transform="translate(-261.04 -2948.48)"/></g><g class="c9922519-431b-41ed-8531-f29cc6e2528f"><text class="b4536b81-f866-4392-80d4-35f69fda9fbf" transform="translate(645.27 49.98)">2<tspan x="8.99" y="0">01</tspan><tspan x="24.98" y="0">6</tspan></text></g><g class="075296aa-e9f4-43d8-9678-7780c72091ea"><path class="b1bb108e-42e0-4a89-8f53-67f9509e1de2" d="M419.15,3013.46v153" transform="translate(-261.04 -2948.48)"/></g><g class="9a7ecf32-c220-409d-9961-46bcd7d7e0d2"><rect class="cb586d6f-8002-40f6-9684-d527ab2d8c46" x="106.61" y="200.48" width="68" height="10"/></g><g class="9a7ecf32-c220-409d-9961-46bcd7d7e0d2"><rect class="cb586d6f-8002-40f6-9684-d527ab2d8c46" x="106.61" y="175.48" width="63" height="10"/></g><g class="9a7ecf32-c220-409d-9961-46bcd7d7e0d2"><rect class="8c127168-d309-42d4-9ad6-1e04fdb29b93" x="106.61" y="149.48" width="49" height="10"/></g><g class="9a7ecf32-c220-409d-9961-46bcd7d7e0d2"><rect class="8c127168-d309-42d4-9ad6-1e04fdb29b93" x="106.61" y="124.48" width="57" height="10"/></g><g class="9a7ecf32-c220-409d-9961-46bcd7d7e0d2"><rect class="e9446539-c302-47cf-b4ee-dafbc1bcf2cc" x="106.61" y="98.48" width="29" height="10"/></g><g class="9a7ecf32-c220-409d-9961-46bcd7d7e0d2"><rect class="e9446539-c302-47cf-b4ee-dafbc1bcf2cc" x="106.61" y="73.48" width="33" height="10"/></g><g class="9a7ecf32-c220-409d-9961-46bcd7d7e0d2"><path class="837ba07e-6075-45b7-a651-24c9cb34d9d0" d="M572.65,3032h-172v-10h172v10Zm0,25h-176v-10h176v10Zm0,26h-148v-10h148v10Zm0,25h-156v-10h156v10Zm0,26h-142v-10h142v10Zm0,25h-137v-10h137v10Z" transform="translate(-261.04 -2948.48)"/></g><g class="075296aa-e9f4-43d8-9678-7780c72091ea"><text class="db8e93f3-21bf-4bae-8510-69b8d3a1af97" transform="translate(99.61 233.48)">0<tspan x="6" y="0">%</tspan></text></g><g class="075296aa-e9f4-43d8-9678-7780c72091ea"><text class="db8e93f3-21bf-4bae-8510-69b8d3a1af97" transform="translate(148.07 233.48)">2<tspan x="6" y="0">5</tspan><tspan x="11" y="0">%</tspan></text></g><g class="075296aa-e9f4-43d8-9678-7780c72091ea"><text class="db8e93f3-21bf-4bae-8510-69b8d3a1af97" transform="translate(199.3 233.48)">5<tspan x="6" y="0">0</tspan><tspan x="11" y="0">%</tspan></text></g><g class="8c894d58-0312-433e-bd5a-e4ca3b122578"><text class="db8e93f3-21bf-4bae-8510-69b8d3a1af97" transform="translate(33.35 208.48)">NYU Humanities</text></g><g class="01f7bc8a-f917-4497-8ab9-5a6636c453c8"><text class="db8e93f3-21bf-4bae-8510-69b8d3a1af97" transform="translate(14.44 182.48)">Columbia Humanities</text></g><g class="e2d660b8-2b00-4533-b90d-8a97bcb2d8bc"><text class="db8e93f3-21bf-4bae-8510-69b8d3a1af97" transform="translate(19.44 157.48)">NYU Social Science</text></g><g class="81827800-0747-4d71-95eb-02d4158b7ade"><text class="db8e93f3-21bf-4bae-8510-69b8d3a1af97" transform="translate(0 131.48)">Columbia Social Science</text></g><g class="dee84bc8-4b08-468b-bd0b-5b55b2103f51"><text class="db8e93f3-21bf-4bae-8510-69b8d3a1af97" transform="translate(47 106.48)">NYU Science</text></g><g class="075296aa-e9f4-43d8-9678-7780c72091ea"><text class="b4536b81-f866-4392-80d4-35f69fda9fbf" transform="translate(138.92 49.48)">200<tspan x="26.97" y="0">0</tspan></text></g><text class="678268e6-1c66-4e9f-b338-749ca1725193" transform="translate(67.55 15)">P<tspan x="8.46" y="0">e</tspan><tspan x="17.14" y="0">r</tspan><tspan x="22.55" y="0">centage of </tspan><tspan x="102.42" y="0">T</tspan><tspan x="109.4" y="0">enu</tspan><tspan x="135.52" y="0">r</tspan><tspan x="140.94" y="0">e</tspan><tspan x="150.55" y="0">-eligible or </tspan><tspan x="232.99" y="0">T</tspan><tspan x="239.97" y="0">enu</tspan><tspan x="266.09" y="0">r</tspan><tspan x="271.51" y="0">ed </tspan><tspan x="293.92" y="0">F</tspan><tspan x="301.66" y="0">emale </tspan><tspan x="349.37" y="0">F</tspan><tspan x="357.02" y="0">acul</tspan><tspan x="386.83" y="0">t</tspan><tspan x="391.55" y="0">y </tspan><tspan x="404.42" y="0">b</tspan><tspan x="413.78" y="0">y Discipline, NYU &amp; Columbia </tspan></text><text class="07f22d8b-d251-48f3-a7c2-807b31f03da1" transform="translate(28.96 79.75)">Columbia Science</text></svg>