<svg id="slide_7" data-name="slide 7" xmlns="http://www.w3.org/2000/svg" viewBox="0 0 552.33 726.09"><defs><style>.cls-1{fill:#4d4d4d;}.cls-2{fill:#ff0;}.cls-3{fill:#f7931e;}.cls-4{fill:#f15a24;}.cls-5{fill:#d4145a;}.cls-6{font-size:16.2px;fill:#fff;font-family:Futura PT;}.cls-7{letter-spacing:-2px;}.cls-8{letter-spacing:-1px;}</style></defs><title>pt2_graph2_before</title><path class="cls-1" d="M464.44,6150.44l1.36,39a39,39,0,1,1-2.72-77.92l1.36,0v39Z" transform="translate(-369.25 -6029.9)"/><path class="cls-1" d="M578.79,6150.78l37.47,10.74a39,39,0,1,1-37.47-49.73v39Z" transform="translate(-369.25 -6029.9)"/><path class="cls-1" d="M693.09,6150.78l20.08-33.41a39,39,0,1,1-53.49,13.34,38.33,38.33,0,0,1,33.41-18.9v39Z" transform="translate(-369.25 -6029.9)"/><path class="cls-1" d="M807.39,6150.78l18.9-34.09a39,39,0,1,1-53,15.2,38.49,38.49,0,0,1,34.09-20.08v39Z" transform="translate(-369.25 -6029.9)"/><path class="cls-2" d="M464.44,6150.44v-39a39,39,0,0,1,1.36,77.94Z" transform="translate(-369.25 -6029.9)"/><path class="cls-3" d="M578.79,6150.78v-39a39,39,0,0,1,39,39,35,35,0,0,1-1.51,10.74Z" transform="translate(-369.25 -6029.9)"/><path class="cls-4" d="M693.09,6150.78v-39a36.48,36.48,0,0,1,20.08,5.57Z" transform="translate(-369.25 -6029.9)"/><path class="cls-5" d="M807.39,6150.78v-39a36.16,36.16,0,0,1,18.9,4.89Z" transform="translate(-369.25 -6029.9)"/><path class="cls-1" d="M464.1,6377.19l-9.34,37.44a38.59,38.59,0,0,1,9.34-76v38.59Z" transform="translate(-369.25 -6029.9)"/><path class="cls-1" d="M578.39,6376.91l21,32.36a38.59,38.59,0,0,1-42-64.72,37.56,37.56,0,0,1,21-6.23v38.59Z" transform="translate(-369.25 -6029.9)"/><path class="cls-1" d="M693.25,6377.3l38.3,2.68a38.39,38.39,0,1,1-38.3-41.07v38.39Z" transform="translate(-369.25 -6029.9)"/><path class="cls-1" d="M807,6376.91l24.28-30a38.59,38.59,0,1,1-54.27,5.7,37.74,37.74,0,0,1,30-14.3v38.59Z" transform="translate(-369.25 -6029.9)"/><path class="cls-2" d="M464.1,6377.19V6338.6a38.59,38.59,0,0,1,0,77.18,35.63,35.63,0,0,1-9.34-1.15Z" transform="translate(-369.25 -6029.9)"/><path class="cls-3" d="M578.39,6376.91v-38.59A38.59,38.59,0,0,1,617,6376.91a37.17,37.17,0,0,1-17.57,32.36Z" transform="translate(-369.25 -6029.9)"/><path class="cls-4" d="M693.25,6377.3v-38.39a38.39,38.39,0,0,1,38.39,38.39c0,1.06,0,1.62-.09,2.68Z" transform="translate(-369.25 -6029.9)"/><path class="cls-5" d="M807,6376.91v-38.59a36.51,36.51,0,0,1,24.28,8.6Z" transform="translate(-369.25 -6029.9)"/><text class="cls-6" transform="translate(0 13.5)">P<tspan x="7.61" y="0">e</tspan><tspan x="15.42" y="0">r</tspan><tspan x="20.3" y="0">centage of </tspan><tspan x="92.18" y="0">W</tspan><tspan x="106.92" y="0">omen in t</tspan><tspan x="165.46" y="0">h</tspan><tspan x="173.16" y="0">e Sciences in Each L</tspan><tspan x="300.13" y="0">e</tspan><tspan x="307.76" y="0">v</tspan><tspan x="314.82" y="0">el of t</tspan><tspan x="350.66" y="0">h</tspan><tspan x="358.35" y="0">e Academic Ladde</tspan><tspan x="477.84" y="0">r</tspan><tspan x="482.54" y="0">, Columbia</tspan></text><text class="cls-6" transform="translate(3.58 125.17)"><tspan class="cls-7">1</tspan><tspan x="6.97" y="0">990</tspan></text><text class="cls-6" transform="translate(42.9 63.9)">Unde<tspan x="34.85" y="0">r</tspan><tspan x="39.72" y="0">g</tspan><tspan x="48.31" y="0">r</tspan><tspan x="53.35" y="0">aduates</tspan></text><text class="cls-6" transform="translate(163.32 63.9)">G<tspan x="12.12" y="0">r</tspan><tspan x="17.16" y="0">ad Students</tspan></text><text class="cls-6" transform="translate(274.03 44.06)">T<tspan x="6.29" y="0">enu</tspan><tspan x="29.79" y="0">r</tspan><tspan x="34.67" y="0">e</tspan><tspan x="43.32" y="0">-eligible </tspan><tspan x="27" y="19.44">F</tspan><tspan x="33.89" y="19.44">acul</tspan><tspan x="60.72" y="19.44">t</tspan><tspan x="64.96" y="19.44">y</tspan></text><text class="cls-6" transform="translate(388.89 63.9)">T<tspan x="6.29" y="0">enu</tspan><tspan x="29.79" y="0">r</tspan><tspan x="34.67" y="0">ed </tspan><tspan x="54.84" y="0">F</tspan><tspan x="61.72" y="0">acul</tspan><tspan x="88.55" y="0">t</tspan><tspan x="92.79" y="0">y</tspan></text><path class="cls-1" d="M465.16,6263.79l-0.67,38.58a38.59,38.59,0,0,1,.67-77.17v38.59Z" transform="translate(-369.25 -6029.9)"/><path class="cls-1" d="M579,6263.9l33.42,19.29a38.59,38.59,0,0,1-66.84-38.59A37.73,37.73,0,0,1,579,6225.31v38.59Z" transform="translate(-369.25 -6029.9)"/><path class="cls-1" d="M693.25,6263.9l38.38-4a38.59,38.59,0,1,1-42.41-34.34,38.12,38.12,0,0,1,4-.21v38.59Z" transform="translate(-369.25 -6029.9)"/><path class="cls-1" d="M807.55,6263.9l24.8-29.56A38.59,38.59,0,1,1,778,6239.1a37.53,37.53,0,0,1,29.56-13.78v38.59Z" transform="translate(-369.25 -6029.9)"/><path class="cls-2" d="M465.16,6263.79V6225.2a38.59,38.59,0,0,1,0,77.18h-0.67Z" transform="translate(-369.25 -6029.9)"/><path class="cls-3" d="M579,6263.9v-38.59a38.59,38.59,0,0,1,38.59,38.59,36.57,36.57,0,0,1-5.17,19.29Z" transform="translate(-369.25 -6029.9)"/><path class="cls-4" d="M693.25,6263.9v-38.59a38.3,38.3,0,0,1,38.38,34.55Z" transform="translate(-369.25 -6029.9)"/><path class="cls-5" d="M807.55,6263.9v-38.59a36.78,36.78,0,0,1,24.8,9Z" transform="translate(-369.25 -6029.9)"/><text class="cls-6" transform="translate(1.18 238.69)">2000</text><text class="cls-6" transform="translate(1.18 351.99)">2005</text><path class="cls-1" d="M464.1,6490.59L454.76,6528a38.59,38.59,0,0,1,9.34-76v38.59Z" transform="translate(-369.25 -6029.9)"/><path class="cls-1" d="M579,6490.7l21,32.36a38.59,38.59,0,1,1-42-64.72,37.56,37.56,0,0,1,21-6.23v38.59Z" transform="translate(-369.25 -6029.9)"/><path class="cls-1" d="M693.25,6490.7l22.68,31.22a38.59,38.59,0,0,1-45.36-62.44,37,37,0,0,1,22.68-7.37v38.59Z" transform="translate(-369.25 -6029.9)"/><path class="cls-1" d="M807.35,6490.7l29.56-24.8a38.59,38.59,0,1,1-54.36-4.76,37.41,37.41,0,0,1,24.8-9v38.59Z" transform="translate(-369.25 -6029.9)"/><path class="cls-2" d="M464.1,6490.59V6452a38.59,38.59,0,0,1,0,77.18,35.63,35.63,0,0,1-9.34-1.15Z" transform="translate(-369.25 -6029.9)"/><path class="cls-3" d="M579,6490.7v-38.59a38.59,38.59,0,0,1,38.59,38.59A37.17,37.17,0,0,1,600,6523.06Z" transform="translate(-369.25 -6029.9)"/><path class="cls-4" d="M693.25,6490.7v-38.59a38.59,38.59,0,0,1,38.59,38.59,37.42,37.42,0,0,1-15.91,31.22Z" transform="translate(-369.25 -6029.9)"/><path class="cls-5" d="M807.35,6490.7v-38.59a37,37,0,0,1,29.56,13.78Z" transform="translate(-369.25 -6029.9)"/><text class="cls-6" transform="translate(4.03 465.21)">2<tspan class="cls-8" x="9.2" y="0">0</tspan><tspan class="cls-8" x="16.99" y="0">1</tspan><tspan x="24.98" y="0">0</tspan></text><path class="cls-1" d="M464.09,6604l2.69,38.49a38.59,38.59,0,0,1-5.38-77c0.85-.06,1.84-0.09,2.69-0.09V6604Z" transform="translate(-369.25 -6029.9)"/><path class="cls-1" d="M579,6604.1l21,32.36a38.59,38.59,0,1,1-42-64.72,37.56,37.56,0,0,1,21-6.23v38.59Z" transform="translate(-369.25 -6029.9)"/><path class="cls-1" d="M693.25,6604.1l38.21-5.37a38.59,38.59,0,1,1-43.58-32.84,40.66,40.66,0,0,1,5.37-.38v38.59Z" transform="translate(-369.25 -6029.9)"/><path class="cls-1" d="M807.55,6604.1l35.78-14.46a38.59,38.59,0,1,1-50.23-21.32,37.4,37.4,0,0,1,14.46-2.81v38.59Z" transform="translate(-369.25 -6029.9)"/><path class="cls-2" d="M464.09,6604V6565.4a38.59,38.59,0,0,1,2.69,77.08Z" transform="translate(-369.25 -6029.9)"/><path class="cls-3" d="M579,6604.1v-38.59a38.59,38.59,0,0,1,38.59,38.59A37.17,37.17,0,0,1,600,6636.46Z" transform="translate(-369.25 -6029.9)"/><path class="cls-4" d="M693.25,6604.1v-38.59a38,38,0,0,1,38.21,33.22Z" transform="translate(-369.25 -6029.9)"/><path class="cls-5" d="M807.55,6604.1v-38.59a37.67,37.67,0,0,1,35.78,24.13Z" transform="translate(-369.25 -6029.9)"/><text class="cls-6" transform="translate(4.47 578.89)">2<tspan class="cls-8" x="9.2" y="0">0</tspan><tspan class="cls-8" x="16.99" y="0">1</tspan><tspan x="24.58" y="0">3</tspan></text><path class="cls-1" d="M693.34,6717.39l36.7-11.92a38.59,38.59,0,1,1-48.62-24.77,36.68,36.68,0,0,1,11.92-1.89v38.59Z" transform="translate(-369.25 -6029.9)"/><path class="cls-1" d="M807,6717.39l37.27-10A38.59,38.59,0,1,1,797,6680.12a38.17,38.17,0,0,1,10-1.31v38.59Z" transform="translate(-369.25 -6029.9)"/><path class="cls-4" d="M693.34,6717.39V6678.8a38,38,0,0,1,36.7,26.66Z" transform="translate(-369.25 -6029.9)"/><path class="cls-5" d="M807,6717.39V6678.8a37.84,37.84,0,0,1,37.27,28.6Z" transform="translate(-369.25 -6029.9)"/><text class="cls-6" transform="translate(4.56 692.26)">2<tspan class="cls-8" x="9.2" y="0">0</tspan><tspan class="cls-8" x="16.99" y="0">1</tspan><tspan x="24.37" y="0">5</tspan></text></svg>