
<svg width="923px" height="348px" viewBox="0 0 923 348" version="1.1" xmlns="http://www.w3.org/2000/svg" xmlns:xlink="http://www.w3.org/1999/xlink">
    <g id="Page-1" stroke="none" stroke-width="1" fill="none" fill-rule="evenodd">
        <g id="Zone-Profile-Graphics-Copy" transform="translate(-219.000000, -55.000000)" fill="#A1A8A7">
            <text id="Pct-White-Copy" font-family="Roboto-Medium, Roboto" font-size="25" font-weight="400">
                <tspan x="276.782959" y="114">Pct White</tspan>
            </text>
            <text id="Median-Home-Value-Copy" font-family="Roboto-Medium, Roboto" font-size="25" font-weight="400">
                <tspan x="217.664307" y="402">Median Home Value</tspan>
            </text>
            <text id="Pct-Homeowners-Copy" font-family="Roboto-Medium, Roboto" font-size="25" font-weight="400">
                <tspan x="234.28418" y="251">Pct Homeowners</tspan>
            </text>
            <rect id="Rectangle" x="523" y="384" width="76" height="12"></rect>
            <rect id="Rectangle-Copy-13" x="523" y="233" width="76" height="12"></rect>
            <rect id="Rectangle-Copy-20" x="523" y="73" width="76" height="12"></rect>
            <rect id="Rectangle-Copy-7" x="610" y="367" width="76" height="12"></rect>
            <rect id="Rectangle-Copy-14" x="610" y="216" width="76" height="12"></rect>
            <rect id="Rectangle-Copy-21" x="610" y="61" width="76" height="12"></rect>
            <rect id="Rectangle-Copy-8" x="692" y="390" width="76" height="12"></rect>
            <rect id="Rectangle-Copy-15" x="692" y="204" width="76" height="12"></rect>
            <rect id="Rectangle-Copy-22" x="692" y="67" width="76" height="12"></rect>
            <rect id="Rectangle-Copy-9" x="786" y="390" width="76" height="12"></rect>
            <rect id="Rectangle-Copy-16" x="786" y="192" width="76" height="12"></rect>
            <rect id="Rectangle-Copy-23" x="786" y="61" width="76" height="12"></rect>
            <rect id="Rectangle-Copy-10" x="877" y="373" width="76" height="12"></rect>
            <rect id="Rectangle-Copy-17" x="877" y="180" width="76" height="12"></rect>
            <rect id="Rectangle-Copy-24" x="877" y="61" width="76" height="12"></rect>
            <rect id="Rectangle-Copy-11" x="975" y="355" width="76" height="12"></rect>
            <rect id="Rectangle-Copy-18" x="972" y="174" width="76" height="12"></rect>
            <rect id="Rectangle-Copy-25" x="972" y="61" width="76" height="12"></rect>
            <rect id="Rectangle-Copy-12" x="1066" y="343" width="76" height="12"></rect>
            <rect id="Rectangle-Copy-19" x="1066" y="168" width="76" height="12"></rect>
            <rect id="Rectangle-Copy-26" x="1066" y="55" width="76" height="12"></rect>
        </g>
    </g>
</svg>
